<svg xmlns="http://www.w3.org/2000/svg" width="46.432" height="62.459" viewBox="0 0 46.432 62.459">
  <g id="Grupo_57256" data-name="Grupo 57256" transform="translate(-1911.812 -1818.775)">
    <path id="Trazado_103541" data-name="Trazado 103541" d="M1954.052,1854.831l.425-4.311a1.392,1.392,0,0,1,.294-.728l2.688-3.4a3.655,3.655,0,0,0,.386-3.923l-1.974-3.856a1.391,1.391,0,0,1-.146-.772l.425-4.311a3.654,3.654,0,0,0-1.8-3.509l-3.745-2.177a1.39,1.39,0,0,1-.54-.57l-1.974-3.856a3.653,3.653,0,0,0-3.247-1.985c-.053,0-.108,0-.161,0l-4.328.193h-.063a1.394,1.394,0,0,1-.7-.189l-3.745-2.177a3.654,3.654,0,0,0-3.938.176l-3.536,2.5a1.391,1.391,0,0,1-.743.255l-4.328.193a3.653,3.653,0,0,0-3.218,2.277l-1.622,4.017a1.39,1.39,0,0,1-.487.616l-3.536,2.5a3.654,3.654,0,0,0-1.476,3.655l.807,4.256a1.391,1.391,0,0,1-.077.782l-1.622,4.017a3.655,3.655,0,0,0,.734,3.873l2.98,3.144a1.389,1.389,0,0,1,.358.7l.807,4.256a3.655,3.655,0,0,0,2.712,2.861l.553.136-7.22,13.565a1.126,1.126,0,0,0,.925,1.653l7.112.436,4.333,5.656a1.133,1.133,0,0,0,.894.441c.032,0,.063,0,.094,0a1.12,1.12,0,0,0,.9-.593l7.771-14.6,7.771,14.6a1.121,1.121,0,0,0,.9.593c.03,0,.061,0,.093,0a1.133,1.133,0,0,0,.894-.441l4.333-5.656,7.112-.436a1.126,1.126,0,0,0,.925-1.653l-7.651-14.373,2.2-.754A3.654,3.654,0,0,0,1954.052,1854.831Zm-30.178,5.551a1.391,1.391,0,0,1,.679.395l2.98,3.144a3.652,3.652,0,0,0,3.828.941l2.132-.731-7.4,13.9-3.581-4.674a1.126,1.126,0,0,0-.825-.439l-5.877-.36,6.666-12.523Zm12.527,3.079,4.05,1a3.639,3.639,0,0,0,.866.1,3.654,3.654,0,0,0,2.863-1.383l2.688-3.4a1.375,1.375,0,0,1,.4-.339l6.984,13.12-5.877.36a1.126,1.126,0,0,0-.825.439l-3.581,4.674-7.661-14.392Zm8.7-5.077-2.688,3.4a1.407,1.407,0,0,1-1.1.529,1.384,1.384,0,0,1-.331-.04l-4.207-1.034a3.638,3.638,0,0,0-2.052.091l-4.1,1.4a1.384,1.384,0,0,1-.45.075,1.4,1.4,0,0,1-1.014-.435l-2.98-3.144a3.64,3.64,0,0,0-1.776-1.032l-4.207-1.034a1.4,1.4,0,0,1-1.037-1.094l-.807-4.256a3.638,3.638,0,0,0-.936-1.829l-2.98-3.144a1.4,1.4,0,0,1-.281-1.481l1.622-4.017a3.638,3.638,0,0,0,.2-2.044l-.807-4.256a1.4,1.4,0,0,1,.564-1.4l3.536-2.5a3.638,3.638,0,0,0,1.275-1.611l1.622-4.017a1.4,1.4,0,0,1,1.23-.871l4.328-.193a3.638,3.638,0,0,0,1.943-.666l3.536-2.5a1.4,1.4,0,0,1,1.506-.067l3.745,2.177a3.649,3.649,0,0,0,1.832.494c.054,0,.109,0,.163,0l4.328-.193h.063a1.406,1.406,0,0,1,1.24.759l1.973,3.856a3.637,3.637,0,0,0,1.413,1.491l3.745,2.177a1.4,1.4,0,0,1,.687,1.342l-.425,4.311a3.638,3.638,0,0,0,.383,2.018l1.973,3.856a1.4,1.4,0,0,1-.148,1.5l-2.688,3.4a3.64,3.64,0,0,0-.769,1.9l-.425,4.311a1.4,1.4,0,0,1-.935,1.182l-4.1,1.4A3.635,3.635,0,0,0,1945.1,1858.384Z" transform="translate(0 0)" fill="#fff"/>
    <path id="Trazado_103542" data-name="Trazado 103542" d="M2144.146,2050.184a14.623,14.623,0,1,0,14.623,14.623A14.64,14.64,0,0,0,2144.146,2050.184Zm0,26.994a12.371,12.371,0,1,1,12.372-12.371A12.385,12.385,0,0,1,2144.146,2077.178Z" transform="translate(-209.117 -222.275)" fill="#fff"/>
    <path id="Trazado_103543" data-name="Trazado 103543" d="M2309.756,2275.5a.276.276,0,0,0-.391,0l-8.315,8.315-4.535-4.534a.276.276,0,0,0-.391,0l-1.2,1.2a.276.276,0,0,0,0,.391l5.931,5.931a.276.276,0,0,0,.391,0l9.711-9.711a.276.276,0,0,0,0-.391Z" transform="translate(-367.912 -438.622)" fill="#fff"/>
  </g>
</svg>
