<svg xmlns="http://www.w3.org/2000/svg" xmlns:xlink="http://www.w3.org/1999/xlink" width="190" height="190" viewBox="0 0 190 190">
  <defs>
    <clipPath id="clip-path">
      <rect id="Rect치ngulo_13836" data-name="Rect치ngulo 13836" width="190" height="190" transform="translate(390 1630)" fill="#ffca28" stroke="#707070" stroke-width="1"/>
    </clipPath>
  </defs>
  <g id="Enmascarar_grupo_66" data-name="Enmascarar grupo 66" transform="translate(-390 -1630)" clip-path="url(#clip-path)">
    <g id="web-movil" transform="translate(390 1630)">
      <path id="Trazado_105695" data-name="Trazado 105695" d="M150.828,10.431V179.569A10.432,10.432,0,0,1,140.4,190H49.6a10.429,10.429,0,0,1-10.431-10.431V10.431A10.43,10.43,0,0,1,49.6,0H140.4A10.432,10.432,0,0,1,150.828,10.431Z" fill="#72f2eb"/>
      <path id="Trazado_105696" data-name="Trazado 105696" d="M150.828,10.431V30.476H39.172V10.431A10.43,10.43,0,0,1,49.6,0H140.4A10.432,10.432,0,0,1,150.828,10.431Z" fill="#14c4bb"/>
      <path id="Trazado_105697" data-name="Trazado 105697" d="M150.828,10.431V25.047H39.172V10.431A10.43,10.43,0,0,1,49.6,0H140.4A10.432,10.432,0,0,1,150.828,10.431Z" fill="#b0d1cf"/>
      <path id="Trazado_105698" data-name="Trazado 105698" d="M150.828,159.195v20.374A10.432,10.432,0,0,1,140.4,190H49.6a10.429,10.429,0,0,1-10.431-10.431V159.195Z" fill="#14c4bb"/>
      <path id="Trazado_105699" data-name="Trazado 105699" d="M150.828,164.624v14.945A10.432,10.432,0,0,1,140.4,190H49.6a10.429,10.429,0,0,1-10.431-10.431V164.624Z" fill="#b0d1cf"/>
      <g id="Grupo_60139" data-name="Grupo 60139">
        <path id="Trazado_105700" data-name="Trazado 105700" d="M99.126,15.39H70.1a2.867,2.867,0,0,1,0-5.734H99.126a2.867,2.867,0,1,1,0,5.734Z" fill="#88a5a0"/>
        <path id="Trazado_105701" data-name="Trazado 105701" d="M119.9,15.681a2.867,2.867,0,0,1-2.867-2.867v-.58a2.867,2.867,0,0,1,5.734,0v.58A2.867,2.867,0,0,1,119.9,15.681Z" fill="#88a5a0"/>
        <path id="Trazado_105702" data-name="Trazado 105702" d="M111.927,15.681a2.867,2.867,0,0,1-2.867-2.867v-.58a2.867,2.867,0,0,1,5.734,0v.58A2.867,2.867,0,0,1,111.927,15.681Z" fill="#88a5a0"/>
        <path id="Trazado_105703" data-name="Trazado 105703" d="M103.212,180.179H86.788a2.867,2.867,0,0,1,0-5.734h16.425a2.867,2.867,0,1,1,0,5.734Z" fill="#88a5a0"/>
      </g>
      <path id="Trazado_105704" data-name="Trazado 105704" d="M89.92,164.624H53.508V52.361a3.118,3.118,0,0,1,3.118-3.118H86.8a3.118,3.118,0,0,1,3.118,3.118V164.624Z" fill="#f9b767"/>
      <rect id="Rect치ngulo_13837" data-name="Rect치ngulo 13837" width="36.412" height="5.429" transform="translate(53.508 159.196)" fill="#ef9d45"/>
      <g id="Grupo_60140" data-name="Grupo 60140">
        <path id="Trazado_105705" data-name="Trazado 105705" d="M134.193,83.44h-28.08a3.118,3.118,0,0,1-3.118-3.118V52.242a3.118,3.118,0,0,1,3.118-3.118h28.08a3.118,3.118,0,0,1,3.118,3.118v28.08A3.118,3.118,0,0,1,134.193,83.44Z" fill="#5089dd"/>
        <path id="Trazado_105706" data-name="Trazado 105706" d="M134.211,108.838H106.095a3.1,3.1,0,0,1-3.1-3.1V98.277a3.1,3.1,0,0,1,3.1-3.1h28.116a3.1,3.1,0,0,1,3.1,3.1v7.461A3.1,3.1,0,0,1,134.211,108.838Z" fill="#5089dd"/>
      </g>
      <g id="Grupo_60141" data-name="Grupo 60141">
        <path id="Trazado_105707" data-name="Trazado 105707" d="M137.311,123.9H102.994a2.867,2.867,0,0,1,0-5.734h34.317a2.867,2.867,0,1,1,0,5.734Z" fill="#14c4bb"/>
        <path id="Trazado_105708" data-name="Trazado 105708" d="M137.311,134.352H102.994a2.867,2.867,0,1,1,0-5.734h34.317a2.867,2.867,0,1,1,0,5.734Z" fill="#14c4bb"/>
        <path id="Trazado_105709" data-name="Trazado 105709" d="M137.311,144.8H102.994a2.867,2.867,0,1,1,0-5.734h34.317a2.867,2.867,0,1,1,0,5.734Z" fill="#14c4bb"/>
        <path id="Trazado_105710" data-name="Trazado 105710" d="M137.311,155.259H102.994a2.867,2.867,0,1,1,0-5.734h34.317a2.867,2.867,0,1,1,0,5.734Z" fill="#14c4bb"/>
      </g>
      <path id="Trazado_105711" data-name="Trazado 105711" d="M129.324,72.243l-6.831-14.382a2.867,2.867,0,0,0-5.18,0l-6.831,14.382a2.867,2.867,0,1,0,5.179,2.46l.614-1.292h7.255l.614,1.292a2.867,2.867,0,1,0,5.18-2.46ZM119,67.677l.9-1.9.9,1.9Z" fill="#dcf9f7"/>
    </g>
  </g>
</svg>
