<svg xmlns="http://www.w3.org/2000/svg" xmlns:xlink="http://www.w3.org/1999/xlink" width="190" height="190" viewBox="0 0 190 190">
  <defs>
    <clipPath id="clip-path">
      <rect id="Rectángulo_12190" data-name="Rectángulo 12190" width="190" height="190" transform="translate(390 2134)" fill="#ffca28" stroke="#707070" stroke-width="1"/>
    </clipPath>
  </defs>
  <g id="Enmascarar_grupo_65" data-name="Enmascarar grupo 65" transform="translate(-390 -2134)" clip-path="url(#clip-path)">
    <g id="telefono-inteligente_3_" data-name="telefono-inteligente (3)" transform="translate(390 2134)">
      <path id="Trazado_105676" data-name="Trazado 105676" d="M134.31,0H55.69a9.828,9.828,0,0,0-9.828,9.828V180.172A9.828,9.828,0,0,0,55.69,190H134.31a9.828,9.828,0,0,0,9.828-9.828V9.828A9.828,9.828,0,0,0,134.31,0ZM81.9,13.1a3.276,3.276,0,0,1,3.276-3.276h19.655A3.276,3.276,0,0,1,108.1,13.1h0a3.276,3.276,0,0,1-3.276,3.276H85.173A3.276,3.276,0,0,1,81.9,13.1ZM72.069,9.828A3.276,3.276,0,1,1,68.793,13.1,3.276,3.276,0,0,1,72.069,9.828ZM95,183.448a6.552,6.552,0,1,1,6.552-6.552A6.552,6.552,0,0,1,95,183.448Zm42.586-58.966v39.31H52.414V26.207h85.172v98.276Z" fill="#707384"/>
      <path id="Trazado_105677" data-name="Trazado 105677" d="M52.414,124.483H78.621a3.276,3.276,0,1,1,6.552,0h6.552a3.276,3.276,0,1,1,6.552,0h6.552a3.276,3.276,0,0,1,6.552,0h26.207V26.207H52.414Zm58.966-81.9a3.276,3.276,0,0,1,3.276-3.276h13.1a3.276,3.276,0,0,1,3.276,3.276v13.1a3.276,3.276,0,0,1-3.276,3.276h-13.1a3.276,3.276,0,0,1-3.276-3.276Zm0,26.207a3.276,3.276,0,0,1,3.276-3.276h13.1a3.276,3.276,0,0,1,3.276,3.276V81.9a3.276,3.276,0,0,1-3.276,3.276h-13.1a3.276,3.276,0,0,1-3.276-3.276Zm0,26.207a3.276,3.276,0,0,1,3.276-3.276h13.1A3.276,3.276,0,0,1,131.035,95v13.1a3.276,3.276,0,0,1-3.276,3.276h-13.1a3.276,3.276,0,0,1-3.276-3.276ZM85.172,42.586a3.276,3.276,0,0,1,3.276-3.276h13.1a3.276,3.276,0,0,1,3.276,3.276v13.1a3.276,3.276,0,0,1-3.276,3.276h-13.1a3.276,3.276,0,0,1-3.276-3.276Zm0,26.207a3.276,3.276,0,0,1,3.276-3.276h13.1a3.276,3.276,0,0,1,3.276,3.276V81.9a3.276,3.276,0,0,1-3.276,3.276h-13.1A3.276,3.276,0,0,1,85.172,81.9Zm0,26.207a3.276,3.276,0,0,1,3.276-3.276h13.1A3.276,3.276,0,0,1,104.828,95v13.1a3.276,3.276,0,0,1-3.276,3.276h-13.1a3.276,3.276,0,0,1-3.276-3.276ZM58.966,42.586a3.276,3.276,0,0,1,3.276-3.276h13.1a3.276,3.276,0,0,1,3.276,3.276v13.1a3.276,3.276,0,0,1-3.276,3.276h-13.1a3.276,3.276,0,0,1-3.276-3.276Zm0,26.207a3.276,3.276,0,0,1,3.276-3.276h13.1a3.276,3.276,0,0,1,3.276,3.276V81.9a3.276,3.276,0,0,1-3.276,3.276h-13.1A3.276,3.276,0,0,1,58.966,81.9Zm0,26.207a3.276,3.276,0,0,1,3.276-3.276h13.1A3.276,3.276,0,0,1,78.621,95v13.1a3.276,3.276,0,0,1-3.276,3.276h-13.1a3.276,3.276,0,0,1-3.276-3.276Z" fill="#63afdb"/>
      <path id="Trazado_105678" data-name="Trazado 105678" d="M108.1,127.759a3.276,3.276,0,0,1-3.276-3.276H98.276a3.276,3.276,0,0,1-6.552,0H85.172a3.276,3.276,0,0,1-6.552,0H52.413v39.31h85.172v-39.31H111.378A3.275,3.275,0,0,1,108.1,127.759ZM78.621,150.69a3.276,3.276,0,0,1-3.276,3.276h-13.1a3.276,3.276,0,0,1-3.276-3.276v-13.1a3.276,3.276,0,0,1,3.276-3.276h13.1a3.276,3.276,0,0,1,3.276,3.276Zm26.207,0a3.276,3.276,0,0,1-3.276,3.276h-13.1a3.276,3.276,0,0,1-3.276-3.276v-13.1a3.276,3.276,0,0,1,3.276-3.276h13.1a3.276,3.276,0,0,1,3.276,3.276Zm9.828-16.379h13.1a3.276,3.276,0,0,1,3.276,3.276v13.1a3.276,3.276,0,0,1-3.276,3.276h-13.1a3.276,3.276,0,0,1-3.276-3.276v-13.1A3.276,3.276,0,0,1,114.655,134.31Z" fill="#468cbe"/>
      <g id="Grupo_60136" data-name="Grupo 60136">
        <path id="Trazado_105679" data-name="Trazado 105679" d="M85.172,16.379h19.655A3.276,3.276,0,0,0,108.1,13.1h0a3.276,3.276,0,0,0-3.276-3.276H85.172A3.276,3.276,0,0,0,81.9,13.1h0A3.277,3.277,0,0,0,85.172,16.379Z" fill="#464655"/>
        <circle id="Elipse_4089" data-name="Elipse 4089" cx="3.276" cy="3.276" r="3.276" transform="translate(68.793 9.827)" fill="#464655"/>
        <circle id="Elipse_4090" data-name="Elipse 4090" cx="6.552" cy="6.552" r="6.552" transform="translate(88.448 170.345)" fill="#464655"/>
      </g>
      <path id="Trazado_105680" data-name="Trazado 105680" d="M101.552,134.31h-13.1a3.276,3.276,0,0,0-3.276,3.276v13.1a3.276,3.276,0,0,0,3.276,3.276h13.1a3.276,3.276,0,0,0,3.276-3.276v-13.1A3.276,3.276,0,0,0,101.552,134.31ZM95,150.69a6.552,6.552,0,1,1,6.552-6.552A6.552,6.552,0,0,1,95,150.69Z" fill="#63afdb"/>
      <path id="Trazado_105681" data-name="Trazado 105681" d="M111.379,150.69a3.276,3.276,0,0,0,3.276,3.276h13.1a3.276,3.276,0,0,0,3.276-3.276v-13.1a3.276,3.276,0,0,0-3.276-3.276h-13.1a3.276,3.276,0,0,0-3.276,3.276Z" fill="#ff6469"/>
      <path id="Trazado_105682" data-name="Trazado 105682" d="M75.345,134.31h-13.1a3.276,3.276,0,0,0-3.276,3.276v13.1a3.276,3.276,0,0,0,3.276,3.276h13.1a3.276,3.276,0,0,0,3.276-3.276v-13.1A3.276,3.276,0,0,0,75.345,134.31Z" fill="#00dccd"/>
      <path id="Trazado_105683" data-name="Trazado 105683" d="M88.448,111.379h13.1a3.276,3.276,0,0,0,3.276-3.276V95a3.276,3.276,0,0,0-3.276-3.276h-13.1A3.276,3.276,0,0,0,85.172,95v13.1A3.276,3.276,0,0,0,88.448,111.379Z" fill="#ffdc69"/>
      <path id="Trazado_105684" data-name="Trazado 105684" d="M114.655,111.379h13.1a3.276,3.276,0,0,0,3.276-3.276V95a3.276,3.276,0,0,0-3.276-3.276h-13.1A3.276,3.276,0,0,0,111.379,95v13.1A3.276,3.276,0,0,0,114.655,111.379Zm0-9.828a3.276,3.276,0,0,1,3.276-3.276h6.552a3.276,3.276,0,0,1,3.276,3.276h0a3.276,3.276,0,0,1-3.276,3.276h-6.552a3.276,3.276,0,0,1-3.276-3.276Z" fill="#fff"/>
      <path id="Trazado_105685" data-name="Trazado 105685" d="M62.241,111.379h13.1a3.276,3.276,0,0,0,3.276-3.276V95a3.276,3.276,0,0,0-3.276-3.276h-13.1A3.276,3.276,0,0,0,58.965,95v13.1A3.277,3.277,0,0,0,62.241,111.379Zm0-9.828a3.276,3.276,0,0,1,3.276-3.276h6.552a3.276,3.276,0,0,1,3.276,3.276h0a3.276,3.276,0,0,1-3.276,3.276H65.517a3.276,3.276,0,0,1-3.276-3.276Z" fill="#468cbe"/>
      <path id="Trazado_105686" data-name="Trazado 105686" d="M88.448,85.172h13.1a3.276,3.276,0,0,0,3.276-3.276v-13.1a3.276,3.276,0,0,0-3.276-3.276h-13.1a3.276,3.276,0,0,0-3.276,3.276V81.9A3.276,3.276,0,0,0,88.448,85.172Zm0-9.828a3.276,3.276,0,0,1,3.276-3.276h6.552a3.276,3.276,0,0,1,3.276,3.276h0a3.276,3.276,0,0,1-3.276,3.276H91.724a3.276,3.276,0,0,1-3.276-3.276Z" fill="#464655"/>
      <path id="Trazado_105687" data-name="Trazado 105687" d="M114.655,85.172h13.1a3.276,3.276,0,0,0,3.276-3.276v-13.1a3.276,3.276,0,0,0-3.276-3.276h-13.1a3.276,3.276,0,0,0-3.276,3.276V81.9A3.276,3.276,0,0,0,114.655,85.172Z" fill="#ffa055"/>
      <path id="Trazado_105688" data-name="Trazado 105688" d="M62.241,85.172h13.1A3.276,3.276,0,0,0,78.621,81.9v-13.1a3.276,3.276,0,0,0-3.276-3.276h-13.1a3.276,3.276,0,0,0-3.276,3.276V81.9A3.276,3.276,0,0,0,62.241,85.172Zm6.552-16.379a6.552,6.552,0,1,1-6.552,6.552A6.551,6.551,0,0,1,68.793,68.793Z" fill="#a0d778"/>
      <path id="Trazado_105689" data-name="Trazado 105689" d="M88.448,58.966h13.1a3.276,3.276,0,0,0,3.276-3.276v-13.1a3.276,3.276,0,0,0-3.276-3.276h-13.1a3.276,3.276,0,0,0-3.276,3.276v13.1A3.276,3.276,0,0,0,88.448,58.966Z" fill="#ff6469"/>
      <path id="Trazado_105690" data-name="Trazado 105690" d="M114.655,58.966h13.1a3.276,3.276,0,0,0,3.276-3.276v-13.1a3.276,3.276,0,0,0-3.276-3.276h-13.1a3.276,3.276,0,0,0-3.276,3.276v13.1A3.276,3.276,0,0,0,114.655,58.966Zm6.552-16.379a6.552,6.552,0,1,1-6.552,6.552A6.551,6.551,0,0,1,121.207,42.586Z" fill="#00dccd"/>
      <g id="Grupo_60137" data-name="Grupo 60137">
        <path id="Trazado_105691" data-name="Trazado 105691" d="M62.241,58.966h13.1a3.276,3.276,0,0,0,3.276-3.276v-13.1a3.276,3.276,0,0,0-3.276-3.276h-13.1a3.276,3.276,0,0,0-3.276,3.276v13.1A3.277,3.277,0,0,0,62.241,58.966Z" fill="#ffdc69"/>
        <circle id="Elipse_4091" data-name="Elipse 4091" cx="6.552" cy="6.552" r="6.552" transform="translate(62.241 68.793)" fill="#ffdc69"/>
        <circle id="Elipse_4092" data-name="Elipse 4092" cx="6.552" cy="6.552" r="6.552" transform="translate(88.448 137.586)" fill="#ffdc69"/>
      </g>
      <circle id="Elipse_4093" data-name="Elipse 4093" cx="6.552" cy="6.552" r="6.552" transform="translate(114.655 42.586)" fill="#ff6469"/>
      <path id="Trazado_105692" data-name="Trazado 105692" d="M91.724,78.621h6.552a3.276,3.276,0,0,0,3.276-3.276h0a3.276,3.276,0,0,0-3.276-3.276H91.724a3.276,3.276,0,0,0-3.276,3.276h0A3.276,3.276,0,0,0,91.724,78.621Z" fill="#468cbe"/>
      <path id="Trazado_105693" data-name="Trazado 105693" d="M117.931,104.828h6.552a3.276,3.276,0,0,0,3.276-3.276h0a3.276,3.276,0,0,0-3.276-3.276h-6.552a3.276,3.276,0,0,0-3.276,3.276h0A3.277,3.277,0,0,0,117.931,104.828Z" fill="#ff6469"/>
      <path id="Trazado_105694" data-name="Trazado 105694" d="M65.517,104.828h6.552a3.276,3.276,0,0,0,3.276-3.276h0a3.276,3.276,0,0,0-3.276-3.276H65.517a3.276,3.276,0,0,0-3.276,3.276h0A3.276,3.276,0,0,0,65.517,104.828Z" fill="#fff"/>
      <circle id="Elipse_4094" data-name="Elipse 4094" cx="3.276" cy="3.276" r="3.276" transform="translate(78.621 121.207)" fill="#464655"/>
      <g id="Grupo_60138" data-name="Grupo 60138">
        <circle id="Elipse_4095" data-name="Elipse 4095" cx="3.276" cy="3.276" r="3.276" transform="translate(91.724 121.207)" fill="#fff"/>
        <circle id="Elipse_4096" data-name="Elipse 4096" cx="3.276" cy="3.276" r="3.276" transform="translate(104.827 121.207)" fill="#fff"/>
      </g>
    </g>
  </g>
</svg>
