<svg xmlns="http://www.w3.org/2000/svg" xmlns:xlink="http://www.w3.org/1999/xlink" width="244" height="206" viewBox="0 0 244 206">
  <defs>
    <clipPath id="clip-path">
      <rect id="Rectángulo_12210" data-name="Rectángulo 12210" width="244" height="206" transform="translate(407 825)" fill="#fff" stroke="#707070" stroke-width="1"/>
    </clipPath>
  </defs>
  <g id="Enmascarar_grupo_71" data-name="Enmascarar grupo 71" transform="translate(-407 -825)" clip-path="url(#clip-path)">
    <g id="detalle" transform="translate(426 825)">
      <path id="Trazado_105739" data-name="Trazado 105739" d="M162.479,206H43.521a12.434,12.434,0,0,1-12.434-12.434V12.434A12.434,12.434,0,0,1,43.521,0H162.479a12.434,12.434,0,0,1,12.434,12.434V193.565A12.434,12.434,0,0,1,162.479,206Z" fill="#bdd8fc"/>
      <path id="Trazado_105740" data-name="Trazado 105740" d="M162.479,0H150.044a12.435,12.435,0,0,1,12.434,12.434V193.565A12.434,12.434,0,0,1,150.044,206h12.434a12.435,12.435,0,0,0,12.434-12.434V12.434A12.435,12.435,0,0,0,162.479,0Z" fill="#9dc7fb"/>
      <g id="Grupo_60147" data-name="Grupo 60147">
        <path id="Trazado_105741" data-name="Trazado 105741" d="M99.321,79.877h-37.2c-1.182,0-2.276.627-3.36.318a12.44,12.44,0,0,1-9.024-11.961V31.087A12.434,12.434,0,0,1,62.173,18.652H99.321a12.434,12.434,0,0,1,12.434,12.434V68.235A12.441,12.441,0,0,1,102.732,80.2c-1.084.308-2.228-.319-3.41-.319Z" fill="#eaf6ff"/>
        <path id="Trazado_105742" data-name="Trazado 105742" d="M99.321,18.652H86.887A12.435,12.435,0,0,1,99.321,31.086V68.234A12.434,12.434,0,0,1,86.887,80.669l12.434-.792c1.182,0,2.327.627,3.41.318a12.44,12.44,0,0,0,9.024-11.961V31.087A12.435,12.435,0,0,0,99.321,18.652Z" fill="#d8ecfe"/>
        <path id="Trazado_105743" data-name="Trazado 105743" d="M62.173,80.669H99.321a12.43,12.43,0,0,0,3.409-.477,22.205,22.205,0,0,0-43.967,0,12.424,12.424,0,0,0,3.409.477Z" fill="#f58a97"/>
        <path id="Trazado_105744" data-name="Trazado 105744" d="M80.747,61.117A22.2,22.2,0,0,0,74.53,62,22.251,22.251,0,0,1,89.614,77.044a2.839,2.839,0,0,1-2.692,3.626h12.4a12.425,12.425,0,0,0,3.409-.477A22.208,22.208,0,0,0,80.747,61.117Z" fill="#f07281"/>
        <path id="Trazado_105745" data-name="Trazado 105745" d="M80.747,64.306a9.533,9.533,0,0,1-9.533-9.533V48.555a9.533,9.533,0,1,1,19.066,0v6.217A9.533,9.533,0,0,1,80.747,64.306Z" fill="#ffcebf"/>
        <path id="Trazado_105746" data-name="Trazado 105746" d="M80.747,39.022A9.483,9.483,0,0,0,75.981,40.3a9.527,9.527,0,0,1,4.767,8.254v6.217a9.526,9.526,0,0,1-4.767,8.254,9.531,9.531,0,0,0,14.3-8.254V48.555A9.533,9.533,0,0,0,80.747,39.022Z" fill="#ffb09e"/>
      </g>
      <g id="Grupo_60148" data-name="Grupo 60148">
        <path id="Trazado_105747" data-name="Trazado 105747" d="M156.261,21.761H125.134a3.109,3.109,0,1,1,0-6.217h31.127a3.109,3.109,0,0,1,0,6.217Z" fill="#eaf6ff"/>
      </g>
      <g id="Grupo_60149" data-name="Grupo 60149">
        <path id="Trazado_105748" data-name="Trazado 105748" d="M156.261,40.413H125.134a3.109,3.109,0,1,1,0-6.217h31.127a3.109,3.109,0,0,1,0,6.217Z" fill="#eaf6ff"/>
      </g>
      <g id="Grupo_60150" data-name="Grupo 60150">
        <path id="Trazado_105749" data-name="Trazado 105749" d="M156.261,102.43H49.739a3.109,3.109,0,0,1,0-6.217H156.262a3.109,3.109,0,1,1,0,6.217Z" fill="#eaf6ff"/>
      </g>
      <g id="Grupo_60151" data-name="Grupo 60151">
        <path id="Trazado_105750" data-name="Trazado 105750" d="M156.261,119.838H49.739a3.109,3.109,0,0,1,0-6.217H156.262a3.109,3.109,0,1,1,0,6.217Z" fill="#eaf6ff"/>
      </g>
      <g id="Grupo_60152" data-name="Grupo 60152">
        <path id="Trazado_105751" data-name="Trazado 105751" d="M156.261,137.247H49.739a3.109,3.109,0,0,1,0-6.217H156.262a3.109,3.109,0,1,1,0,6.217Z" fill="#eaf6ff"/>
      </g>
      <g id="Grupo_60153" data-name="Grupo 60153">
        <path id="Trazado_105752" data-name="Trazado 105752" d="M156.261,154.655H49.739a3.109,3.109,0,0,1,0-6.217H156.262a3.109,3.109,0,1,1,0,6.217Z" fill="#eaf6ff"/>
      </g>
      <g id="Grupo_60154" data-name="Grupo 60154">
        <path id="Trazado_105753" data-name="Trazado 105753" d="M156.261,172.064H49.739a3.109,3.109,0,0,1,0-6.217H156.262a3.109,3.109,0,1,1,0,6.217Z" fill="#eaf6ff"/>
      </g>
      <g id="Grupo_60155" data-name="Grupo 60155">
        <path id="Trazado_105754" data-name="Trazado 105754" d="M125.175,189.472H49.739a3.109,3.109,0,0,1,0-6.217h75.437a3.109,3.109,0,1,1,0,6.217Z" fill="#eaf6ff"/>
      </g>
      <g id="Grupo_60156" data-name="Grupo 60156">
        <path id="Trazado_105755" data-name="Trazado 105755" d="M143.827,59.064H125.134a3.109,3.109,0,1,1,0-6.217h18.693a3.109,3.109,0,0,1,0,6.217Z" fill="#eaf6ff"/>
      </g>
    </g>
  </g>
</svg>
