<svg xmlns="http://www.w3.org/2000/svg" xmlns:xlink="http://www.w3.org/1999/xlink" width="190" height="190" viewBox="0 0 190 190">
  <defs>
    <clipPath id="clip-path">
      <rect id="Rectángulo_12189" data-name="Rectángulo 12189" width="190" height="190" transform="translate(1020 1888)" fill="#ffca28" stroke="#707070" stroke-width="1"/>
    </clipPath>
  </defs>
  <g id="Enmascarar_grupo_64" data-name="Enmascarar grupo 64" transform="translate(-1020 -1888)" clip-path="url(#clip-path)">
    <g id="app" transform="translate(1023.556 1888)">
      <path id="Trazado_105646" data-name="Trazado 105646" d="M172.134,190h-89.5a10.753,10.753,0,0,1-10.753-10.754V10.754A10.753,10.753,0,0,1,82.636,0h89.5a10.753,10.753,0,0,1,10.754,10.754V179.245A10.753,10.753,0,0,1,172.134,190Zm0,0" fill="#f9efef"/>
      <path id="Trazado_105647" data-name="Trazado 105647" d="M182.887,10.756V179.244A10.753,10.753,0,0,1,172.135,190H160.367a10.757,10.757,0,0,0,10.756-10.756V10.756A10.757,10.757,0,0,0,160.367,0h11.768a10.753,10.753,0,0,1,10.752,10.756Zm0,0" fill="#efe2dd"/>
      <path id="Trazado_105648" data-name="Trazado 105648" d="M172.134,190h-89.5a10.753,10.753,0,0,1-10.753-10.754v-11.89h111v11.89A10.753,10.753,0,0,1,172.134,190Zm0,0" fill="#7ca1b1"/>
      <path id="Trazado_105649" data-name="Trazado 105649" d="M182.888,23.522h-111V10.754A10.753,10.753,0,0,1,82.636,0h89.5a10.753,10.753,0,0,1,10.754,10.754Zm0,0" fill="#7ca1b1"/>
      <path id="Trazado_105650" data-name="Trazado 105650" d="M182.887,167.356v11.888A10.753,10.753,0,0,1,172.135,190H160.344A10.753,10.753,0,0,0,171.1,179.244V167.356Zm0,0" fill="#678d98"/>
      <path id="Trazado_105651" data-name="Trazado 105651" d="M182.887,10.756V23.522H171.1V10.756A10.753,10.753,0,0,0,160.344,0h11.791a10.753,10.753,0,0,1,10.752,10.756Zm0,0" fill="#678d98"/>
      <path id="Trazado_105652" data-name="Trazado 105652" d="M41,0a41.614,41.614,0,0,1,36.918,61.97l.019-.019,7.934,15.5a3.146,3.146,0,0,1-3.414,4.518L62,77.911l.02-.02A41.618,41.618,0,1,1,41,0Zm0,0" fill="#80cf00"/>
      <path id="Trazado_105653" data-name="Trazado 105653" d="M82.455,81.971l-6.826-1.354L68.277,66.256l-.019.019A41.631,41.631,0,0,0,20.01,6.045,41.617,41.617,0,0,1,77.917,61.974l.02-.019,7.932,15.5a3.146,3.146,0,0,1-3.414,4.518Zm0,0" fill="#6db000"/>
      <path id="Trazado_105654" data-name="Trazado 105654" d="M104.814,64.073l2.48,5.026a.885.885,0,0,0,.668.486l5.546.806A.886.886,0,0,1,114,71.9l-4.014,3.912a.888.888,0,0,0-.255.784l.948,5.524a.887.887,0,0,1-1.287.935l-4.96-2.608a.886.886,0,0,0-.826,0l-4.96,2.608a.887.887,0,0,1-1.287-.935L98.3,76.6a.888.888,0,0,0-.255-.784L94.036,71.9a.887.887,0,0,1,.491-1.512l5.548-.806a.885.885,0,0,0,.667-.486l2.48-5.026a.887.887,0,0,1,1.592,0Zm0,0" fill="#ffc143"/>
      <path id="Trazado_105655" data-name="Trazado 105655" d="M133.04,64.073l2.48,5.026a.885.885,0,0,0,.667.486l5.548.806a.887.887,0,0,1,.491,1.512l-4.014,3.912a.888.888,0,0,0-.255.784l.948,5.524a.887.887,0,0,1-1.287.935l-4.96-2.608a.886.886,0,0,0-.826,0l-4.96,2.608a.887.887,0,0,1-1.287-.935l.948-5.524a.888.888,0,0,0-.255-.784L122.262,71.9a.887.887,0,0,1,.491-1.512l5.546-.806a.885.885,0,0,0,.668-.486l2.48-5.026a.887.887,0,0,1,1.592,0Zm0,0" fill="#ffc143"/>
      <path id="Trazado_105656" data-name="Trazado 105656" d="M161.35,64.073l2.48,5.026a.885.885,0,0,0,.667.486l5.546.806a.886.886,0,0,1,.491,1.512l-4.012,3.912a.888.888,0,0,0-.255.784l.947,5.524a.886.886,0,0,1-1.286.935l-4.962-2.608a.883.883,0,0,0-.825,0l-4.96,2.608a.887.887,0,0,1-1.287-.935l.948-5.524a.888.888,0,0,0-.255-.784L150.573,71.9a.886.886,0,0,1,.491-1.512l5.546-.806a.887.887,0,0,0,.668-.486l2.48-5.026A.887.887,0,0,1,161.35,64.073Zm0,0" fill="#ffc143"/>
      <path id="Trazado_105657" data-name="Trazado 105657" d="M119.526,9.688h-7.861a2.87,2.87,0,0,0,0,5.74h7.861a2.87,2.87,0,0,0,0-5.74Zm0,0" fill="#3e5959"/>
      <path id="Trazado_105658" data-name="Trazado 105658" d="M143.107,9.688H128.6a2.87,2.87,0,0,0,0,5.74h14.512a2.87,2.87,0,1,0,0-5.74Zm0,0" fill="#3e5959"/>
      <path id="Trazado_105659" data-name="Trazado 105659" d="M118.95,179.928h16.872a2.87,2.87,0,1,0,0-5.74H118.95a2.87,2.87,0,1,0,0,5.74Zm0,0" fill="#3e5959"/>
      <g id="Grupo_60135" data-name="Grupo 60135">
        <path id="Trazado_105660" data-name="Trazado 105660" d="M112.762,102.674a2.871,2.871,0,0,0-2.87-2.87H86.223a2.87,2.87,0,0,0,0,5.74h23.669A2.87,2.87,0,0,0,112.762,102.674Zm0,0" fill="#e8bb3a"/>
        <path id="Trazado_105661" data-name="Trazado 105661" d="M133.56,99.8H124.4a2.87,2.87,0,0,0,0,5.74h9.163a2.87,2.87,0,1,0,0-5.74Zm0,0" fill="#e8bb3a"/>
        <path id="Trazado_105662" data-name="Trazado 105662" d="M168.549,99.8h-21.61a2.87,2.87,0,0,0,0,5.74h21.61a2.87,2.87,0,1,0,0-5.74Zm0,0" fill="#e8bb3a"/>
        <path id="Trazado_105663" data-name="Trazado 105663" d="M86.223,125.208h15.09a2.869,2.869,0,1,0,0-5.739H86.223a2.869,2.869,0,1,0,0,5.739Zm0,0" fill="#e8bb3a"/>
        <path id="Trazado_105664" data-name="Trazado 105664" d="M111.862,125.208H139.22a2.869,2.869,0,1,0,0-5.739H111.862a2.869,2.869,0,1,0,0,5.739Zm0,0" fill="#e8bb3a"/>
        <path id="Trazado_105665" data-name="Trazado 105665" d="M168.549,119.469H151.9a2.87,2.87,0,1,0,0,5.74h16.65a2.87,2.87,0,0,0,0-5.74Zm0,0" fill="#e8bb3a"/>
        <path id="Trazado_105666" data-name="Trazado 105666" d="M86.223,143.3h19.121a2.87,2.87,0,1,0,0-5.74H86.223a2.87,2.87,0,0,0,0,5.74Zm0,0" fill="#e8bb3a"/>
        <path id="Trazado_105667" data-name="Trazado 105667" d="M117.56,143.3h29.379a2.87,2.87,0,1,0,0-5.74H117.56a2.87,2.87,0,0,0,0,5.74Zm0,0" fill="#e8bb3a"/>
        <path id="Trazado_105668" data-name="Trazado 105668" d="M168.549,137.56H157.744a2.87,2.87,0,0,0,0,5.74h10.805a2.87,2.87,0,1,0,0-5.74Zm0,0" fill="#e8bb3a"/>
      </g>
      <path id="Trazado_105669" data-name="Trazado 105669" d="M66.912,41.613A24.642,24.642,0,1,1,42.269,16.972,24.643,24.643,0,0,1,66.912,41.613Zm0,0" fill="#f5d573"/>
      <path id="Trazado_105670" data-name="Trazado 105670" d="M66.912,41.613A24.64,24.64,0,0,1,26.783,60.778a24.644,24.644,0,0,0,24.749-42,24.644,24.644,0,0,1,15.38,22.84Zm0,0" fill="#f3cc50"/>
      <path id="Trazado_105671" data-name="Trazado 105671" d="M31.139,43.421a3.6,3.6,0,1,1-3.6-3.6A3.6,3.6,0,0,1,31.139,43.421Zm0,0" fill="#d99a9e"/>
      <path id="Trazado_105672" data-name="Trazado 105672" d="M60.6,43.421a3.6,3.6,0,1,1-3.6-3.6A3.6,3.6,0,0,1,60.6,43.421Zm0,0" fill="#d99a9e"/>
      <path id="Trazado_105673" data-name="Trazado 105673" d="M38.957,38.573V35.432a2.869,2.869,0,1,0-5.739,0v3.141a2.869,2.869,0,1,0,5.739,0Zm0,0" fill="#706f6f"/>
      <path id="Trazado_105674" data-name="Trazado 105674" d="M48.451,32.562a2.871,2.871,0,0,0-2.87,2.87v3.141a2.87,2.87,0,1,0,5.74,0V35.432A2.871,2.871,0,0,0,48.451,32.562Zm0,0" fill="#706f6f"/>
      <path id="Trazado_105675" data-name="Trazado 105675" d="M47.961,47.372a2.869,2.869,0,0,0-3.827,1.352,2.016,2.016,0,0,1-3.676-.084,2.87,2.87,0,0,0-5.287,2.235,7.755,7.755,0,0,0,14.142.322,2.869,2.869,0,0,0-1.352-3.825Zm0,0" fill="#706f6f"/>
    </g>
  </g>
</svg>
