<svg xmlns="http://www.w3.org/2000/svg" xmlns:xlink="http://www.w3.org/1999/xlink" width="244" height="206" viewBox="0 0 244 206">
  <defs>
    <clipPath id="clip-path">
      <rect id="Rectángulo_12198" data-name="Rectángulo 12198" width="244" height="206" transform="translate(407 97)" fill="#fff" stroke="#707070" stroke-width="1"/>
    </clipPath>
  </defs>
  <g id="Enmascarar_grupo_69" data-name="Enmascarar grupo 69" transform="translate(-407 -97)" clip-path="url(#clip-path)">
    <g id="subir" transform="translate(415.345 86.345)">
      <rect id="Rectángulo_13848" data-name="Rectángulo 13848" width="134.966" height="191.793" rx="7.103" transform="translate(10.655 24.862)" fill="#235182"/>
      <rect id="Rectángulo_13849" data-name="Rectángulo 13849" width="106.552" height="163.379" rx="3.552" transform="translate(24.862 39.069)" fill="#e1ecfd"/>
      <path id="Trazado_105720" data-name="Trazado 105720" d="M209.552,10.655H95.9a7.1,7.1,0,0,0-7.1,7.1V124.31L74.586,138.517H209.552a7.1,7.1,0,0,0,7.1-7.1V17.759A7.1,7.1,0,0,0,209.552,10.655Z" fill="#5bcbfa"/>
      <rect id="Rectángulo_13850" data-name="Rectángulo 13850" width="21.31" height="14.207" rx="7.103" transform="translate(67.483 174.034)" fill="#63d9ae"/>
      <path id="Trazado_105721" data-name="Trazado 105721" d="M181.138,53.276a21.442,21.442,0,0,0-4.024.391,17.716,17.716,0,0,0-33.859-10.176,14.026,14.026,0,0,0-18.267,17.45,17.737,17.737,0,1,0-4.23,34.956h60.379a21.31,21.31,0,0,0,0-42.621Z" fill="#fff"/>
      <path id="Trazado_105722" data-name="Trazado 105722" d="M163.379,81.69l7.1,35.517H134.966l7.1-35.517H131.414l21.31-21.31,21.31,21.31Z" fill="#ec455a"/>
    </g>
  </g>
</svg>
