<svg xmlns="http://www.w3.org/2000/svg" width="505" height="374" viewBox="0 0 505 374">
  <g id="Grupo_57255" data-name="Grupo 57255" transform="translate(-915 -1257)">
    <rect id="Rectángulo_12108" data-name="Rectángulo 12108" width="505" height="374" transform="translate(915 1257)" fill="#4dd0e1" opacity="0.35"/>
    <g id="Grupo_57254" data-name="Grupo 57254" transform="translate(945.006 1208.339)">
      <path id="Trazado_103451" data-name="Trazado 103451" d="M232.5,371.449,64.418,274.409c-4.407-2.544-3.849-7.029,1.239-9.967l165.6-95.607c5.088-2.938,12.857-3.26,17.263-.716L416.6,265.158c4.406,2.544,3.849,7.029-1.24,9.967l-165.6,95.607C244.671,373.671,236.9,373.993,232.5,371.449Z" transform="translate(-2.242 -7.329)" fill="#7974f0" opacity="0.3" style="mix-blend-mode: multiply;isolation: isolate"/>
      <path id="Trazado_103452" data-name="Trazado 103452" d="M153.613,379.914c-.216,2.416-2.072,4.915-5.479,6.88L108.2,409.85c-6.638,3.833-16.779,4.254-22.534.932L42.5,385.862c-2.607-1.5-3.881-3.527-3.881-5.648,0-2.144,1.3-4.385,3.863-6.284a15.316,15.316,0,0,1,1.634-1.081L84.05,349.8c6.644-3.84,16.786-4.26,22.534-.938l43.129,24.9.042.024c2.4,1.388,3.671,3.214,3.857,5.155A5.314,5.314,0,0,1,153.613,379.914Z" transform="translate(0 -25.032)" fill="#7974f0" opacity="0.3" style="mix-blend-mode: multiply;isolation: isolate"/>
      <path id="Trazado_103453" data-name="Trazado 103453" d="M395.8,344.741l-23.983-13.847c-3.2-1.845-2.791-5.1.9-7.228L394.9,310.858c3.69-2.13,9.323-2.364,12.519-.518L431.4,324.185c3.2,1.845,2.791,5.1-.9,7.228l-22.184,12.809C404.627,346.352,398.994,346.586,395.8,344.741Z" transform="translate(-32.518 -21.346)" fill="#7974f0" opacity="0.3" style="mix-blend-mode: multiply;isolation: isolate"/>
      <path id="Trazado_103454" data-name="Trazado 103454" d="M360.255,379.776l-15.974-9.222c-2.128-1.229-1.859-3.4.6-4.815l14.776-8.532c2.457-1.418,6.21-1.574,8.339-.345l15.974,9.222c2.128,1.229,1.859,3.4-.6,4.815l-14.776,8.531C366.135,380.849,362.383,381,360.255,379.776Z" transform="translate(-29.884 -25.956)" fill="#7974f0" opacity="0.3" style="mix-blend-mode: multiply;isolation: isolate"/>
      <g id="Grupo_57213" data-name="Grupo 57213" transform="translate(59.203 124.466)">
        <path id="Trazado_103455" data-name="Trazado 103455" d="M419.57,233.51H391.159L248.52,151.157c-4.407-2.544-12.176-2.222-17.263.715l-141.4,81.637h-28.4v19.312h.009c-.127,1.732.832,3.4,2.95,4.626L232.5,354.487c4.407,2.545,12.176,2.222,17.264-.715l165.6-95.608c2.643-1.526,4.053-3.469,4.19-5.341h.023Z" transform="translate(-61.447 -130.128)" fill="#0090e4"/>
        <path id="Trazado_103456" data-name="Trazado 103456" d="M232.5,333.071,64.418,236.032c-4.407-2.545-3.849-7.029,1.24-9.967l165.6-95.608c5.088-2.937,12.857-3.26,17.263-.715L416.6,226.78c4.406,2.545,3.849,7.029-1.24,9.967l-165.6,95.607C244.671,335.293,236.9,335.615,232.5,333.071Z" transform="translate(-61.445 -128.024)" fill="#00aee6"/>
      </g>
      <g id="Grupo_57214" data-name="Grupo 57214" transform="translate(38.62 286.981)">
        <path id="Trazado_103457" data-name="Trazado 103457" d="M153.613,341.8v11.462a3.764,3.764,0,0,1,0,.451v.264h-.006c-.179,2.445-2.018,4.98-5.473,6.974L108.2,384c-6.638,3.833-16.779,4.254-22.534.932L42.5,360.01c-2.763-1.592-4.019-3.773-3.851-6.037H38.62v-10.9c0-2.144,1.3-4.385,3.863-6.284l19.381-.03L84.05,323.946c6.644-3.833,16.786-4.254,22.534-.932L130.2,336.646l19.512-.03.042.024C152.153,338.027,153.427,339.854,153.613,341.8Z" transform="translate(-38.62 -309.473)" fill="#423ead"/>
        <path id="Trazado_103458" data-name="Trazado 103458" d="M153.613,341.537c-.216,2.415-2.072,4.914-5.479,6.879L108.2,371.473c-6.638,3.832-16.779,4.254-22.534.932L42.5,347.484c-2.607-1.5-3.881-3.526-3.881-5.647,0-2.144,1.3-4.385,3.863-6.284a15.6,15.6,0,0,1,1.634-1.081L84.05,311.421c6.644-3.839,16.786-4.26,22.534-.937l43.129,24.9.042.024c2.4,1.387,3.671,3.214,3.857,5.155A5.314,5.314,0,0,1,153.613,341.537Z" transform="translate(-38.62 -308.243)" fill="#fff"/>
      </g>
      <g id="Grupo_57215" data-name="Grupo 57215" transform="translate(337.141 253.141)">
        <path id="Trazado_103459" data-name="Trazado 103459" d="M433.546,299.712c0-.084.005-.168,0-.252v-9.247l-13.009.021-13.119-7.575c-3.2-1.845-8.829-1.611-12.519.519l-12.325,7.116-12.914.021v9.545h.017a3.623,3.623,0,0,0,2.139,3.355L395.8,317.061c3.2,1.845,8.829,1.611,12.519-.519L430.5,303.734c1.917-1.107,2.939-2.516,3.038-3.873h.006Z" transform="translate(-369.659 -271.768)" fill="#423ead"/>
        <path id="Trazado_103460" data-name="Trazado 103460" d="M395.8,306.363l-23.983-13.847c-3.2-1.845-2.791-5.1.9-7.228L394.9,272.481c3.69-2.131,9.323-2.364,12.519-.519L431.4,285.808c3.2,1.845,2.791,5.1-.9,7.228l-22.184,12.809C404.627,307.974,398.994,308.208,395.8,306.363Z" transform="translate(-369.659 -270.717)" fill="#fff"/>
      </g>
      <g id="Grupo_57216" data-name="Grupo 57216" transform="translate(312.961 295.469)">
        <path id="Trazado_103461" data-name="Trazado 103461" d="M385.4,336.968c0-.057,0-.113,0-.168v-6.16l-8.664.014-8.738-5.045c-2.129-1.229-5.881-1.073-8.339.346l-8.21,4.74-8.6.014v6.357h.011a2.413,2.413,0,0,0,1.425,2.235l15.974,9.222c2.128,1.228,5.88,1.073,8.339-.345l14.776-8.532a3.533,3.533,0,0,0,2.024-2.58h0Z" transform="translate(-342.845 -318.355)" fill="#423ead"/>
        <path id="Trazado_103462" data-name="Trazado 103462" d="M360.255,341.4l-15.974-9.222c-2.128-1.229-1.859-3.4.6-4.815l14.776-8.531c2.457-1.419,6.21-1.574,8.339-.345l15.974,9.222c2.128,1.229,1.859,3.4-.6,4.814l-14.776,8.532C366.135,342.471,362.383,342.627,360.255,341.4Z" transform="translate(-342.845 -317.655)" fill="#fff"/>
        <path id="Trazado_103463" data-name="Trazado 103463" d="M365.14,335.965a2.469,2.469,0,0,1-.336-.021l-9.073-5.237,8.7-5.026a2.926,2.926,0,0,1,1.2-.234,2.457,2.457,0,0,1,.336.021l9.073,5.237-8.7,5.026A2.945,2.945,0,0,1,365.14,335.965Z" transform="translate(-344.111 -318.421)" fill="#fdcc6b"/>
      </g>
      <g id="Grupo_57220" data-name="Grupo 57220" transform="translate(89.394 101.502)">
        <g id="Grupo_57217" data-name="Grupo 57217" transform="translate(0 40.134)">
          <path id="Trazado_103464" data-name="Trazado 103464" d="M95.764,167.935l9.055-6.747a2.248,2.248,0,0,0,.737-1.043l4.05-11.812c.307-.9,1.111-1.459,1.56-1.2l.018.006,4.546,2.756a.049.049,0,0,1,.026.04c.028.272.276,2.681.469,4.61a.056.056,0,0,0,.078.045l8.9-3.644a.6.6,0,0,1,.538,0l0,0,4.555,2.747a.055.055,0,0,1,0,.094l-1.584,1.066-.009.007L118.967,165.1a.052.052,0,0,0-.014.048l1.5,9.249c.137.843-.7,2.032-1.419,2.01l-8.1-.241a1.109,1.109,0,0,0-.727.339l-1.472,4.477v0l-3.312,8.454a.055.055,0,0,1-.08.028l-4.624-2.767a.823.823,0,0,1-.212-.788l1.547-11.306a.784.784,0,0,0-.281-.838l-1.7-.933-.313.005-4.536-2.664C94.641,169.855,94.961,168.533,95.764,167.935Z" transform="translate(-94.925 -147.066)" fill="#ff865d"/>
          <path id="Trazado_103465" data-name="Trazado 103465" d="M114.83,151.467l-4.05,11.812a2.242,2.242,0,0,1-.736,1.043l-9.055,6.747c-.8.6-1.123,1.921-.543,2.239L107,176.9a.784.784,0,0,1,.281.838l-1.547,11.306c-.137,1,.7,1.221,1.419.372l8.1-9.593a1.27,1.27,0,0,1,.91-.526l8.1.241c.717.022,1.556-1.166,1.418-2.01l-1.547-9.52a1.851,1.851,0,0,1,.281-1.162l6.552-11.158c.581-.988.26-1.942-.542-1.613l-9.055,3.708a.543.543,0,0,1-.737-.192l-4.05-7.137C116.225,149.822,115.189,150.42,114.83,151.467Z" transform="translate(-95.438 -147.373)" fill="#fdcc6b"/>
        </g>
        <g id="Grupo_57218" data-name="Grupo 57218" transform="translate(36.336 20.067)">
          <path id="Trazado_103466" data-name="Trazado 103466" d="M136.058,145.682l9.056-6.748a2.245,2.245,0,0,0,.736-1.042l4.05-11.812c.308-.9,1.111-1.459,1.561-1.2l.017.006,4.546,2.755a.052.052,0,0,1,.027.041c.028.272.275,2.681.469,4.61a.055.055,0,0,0,.077.045l8.9-3.644a.6.6,0,0,1,.537,0l0,0,4.556,2.747a.055.055,0,0,1,0,.094l-1.584,1.066-.01.007-9.739,10.247a.058.058,0,0,0-.014.048l1.5,9.249c.137.843-.7,2.031-1.419,2.01l-8.1-.241a1.11,1.11,0,0,0-.727.339l-1.472,4.477v0l-3.311,8.454a.056.056,0,0,1-.081.028l-4.623-2.767a.823.823,0,0,1-.213-.788l1.547-11.306a.783.783,0,0,0-.281-.838l-1.7-.933-.314.005-4.536-2.664C134.936,147.6,135.256,146.28,136.058,145.682Z" transform="translate(-135.22 -124.813)" fill="#ff865d"/>
          <path id="Trazado_103467" data-name="Trazado 103467" d="M155.124,129.213l-4.049,11.812a2.25,2.25,0,0,1-.737,1.043l-9.055,6.747c-.8.6-1.123,1.921-.542,2.239l6.552,3.592a.787.787,0,0,1,.281.838l-1.547,11.306c-.137,1,.7,1.221,1.419.372l8.1-9.593a1.271,1.271,0,0,1,.911-.526l8.1.241c.718.022,1.556-1.166,1.419-2.01l-1.547-9.52a1.855,1.855,0,0,1,.281-1.162l6.552-11.158c.581-.988.261-1.942-.542-1.613l-9.055,3.708a.543.543,0,0,1-.737-.192l-4.049-7.137C156.52,127.569,155.483,128.167,155.124,129.213Z" transform="translate(-135.733 -125.12)" fill="#fdcc6b"/>
        </g>
        <g id="Grupo_57219" data-name="Grupo 57219" transform="translate(72.673)">
          <path id="Trazado_103468" data-name="Trazado 103468" d="M176.353,123.429l9.055-6.748a2.247,2.247,0,0,0,.737-1.042l4.049-11.812c.307-.9,1.111-1.459,1.561-1.2l.017.006,4.547,2.755a.053.053,0,0,1,.026.041c.028.272.275,2.681.469,4.61a.055.055,0,0,0,.077.045l8.9-3.645a.6.6,0,0,1,.537,0l0,0,4.556,2.748a.056.056,0,0,1,0,.094l-1.584,1.066-.009.007-9.739,10.247a.056.056,0,0,0-.015.048l1.5,9.249c.137.843-.7,2.031-1.419,2.01l-8.1-.241a1.109,1.109,0,0,0-.727.339l-1.472,4.477,0,0-3.311,8.454a.057.057,0,0,1-.081.028l-4.623-2.767a.825.825,0,0,1-.213-.788l1.547-11.307a.785.785,0,0,0-.281-.837l-1.7-.933-.314.005-4.535-2.664C175.23,125.349,175.55,124.026,176.353,123.429Z" transform="translate(-175.514 -102.56)" fill="#ff865d"/>
          <path id="Trazado_103469" data-name="Trazado 103469" d="M195.419,106.96l-4.05,11.812a2.248,2.248,0,0,1-.736,1.043l-9.056,6.747c-.8.6-1.123,1.921-.542,2.239l6.552,3.592a.786.786,0,0,1,.281.838l-1.547,11.306c-.137,1,.7,1.221,1.419.371l8.1-9.592a1.27,1.27,0,0,1,.91-.526l8.1.241c.718.022,1.556-1.166,1.419-2.01l-1.547-9.52a1.848,1.848,0,0,1,.281-1.162l6.552-11.158c.58-.988.26-1.942-.542-1.613l-9.056,3.708a.542.542,0,0,1-.736-.192l-4.05-7.137C196.814,105.316,195.778,105.914,195.419,106.96Z" transform="translate(-176.027 -102.867)" fill="#fdcc6b"/>
        </g>
      </g>
      <g id="Grupo_57226" data-name="Grupo 57226" transform="translate(146.949 175.053)">
        <path id="Trazado_103470" data-name="Trazado 103470" d="M375.76,236.661l-10.609,1.1-72.222-41.7c-3.383-1.952-9.346-1.705-13.251.55L174.059,257.593l-15.309,1.589v9.671h.01a3.9,3.9,0,0,0,2.272,3.364l80.55,46.505c3.382,1.953,9.345,1.706,13.251-.549l117.694-67.95c2.041-1.179,3.122-2.68,3.217-4.125l.017,0Z" transform="translate(-158.75 -185.166)" fill="#423ead"/>
        <path id="Trazado_103471" data-name="Trazado 103471" d="M241.581,308.1l-80.55-46.505c-3.383-1.952-2.954-5.4.951-7.651l117.694-67.95c3.906-2.255,9.869-2.5,13.251-.549l80.549,46.5c3.383,1.953,2.954,5.4-.951,7.652l-117.694,67.95C250.926,309.8,244.964,310.049,241.581,308.1Z" transform="translate(-158.75 -184.123)" fill="#fff"/>
        <g id="Grupo_57225" data-name="Grupo 57225" transform="translate(28.771 18.966)">
          <path id="Trazado_103472" data-name="Trazado 103472" d="M282.908,218.214l-4.019-2.32c-3.383-1.953-2.954-5.4.951-7.651l2.116-1.222c3.906-2.254,9.868-2.5,13.251-.549l4.019,2.32c3.383,1.953,2.954,5.4-.951,7.651l-2.116,1.222C292.253,219.92,286.29,220.167,282.908,218.214Z" transform="translate(-199.098 -205.155)" fill="#d1cef9"/>
          <path id="Trazado_103473" data-name="Trazado 103473" d="M254.257,234.755l-4.019-2.32c-3.383-1.952-2.954-5.4.951-7.651l2.116-1.221c3.906-2.255,9.869-2.5,13.252-.549l4.018,2.319c3.383,1.953,2.954,5.4-.951,7.652l-2.116,1.221C263.6,236.462,257.639,236.709,254.257,234.755Z" transform="translate(-196.283 -206.78)" fill="#d1cef9"/>
          <path id="Trazado_103474" data-name="Trazado 103474" d="M225.606,251.3l-4.018-2.32c-3.383-1.953-2.955-5.4.951-7.651l2.116-1.222c3.906-2.255,9.869-2.5,13.252-.549l4.018,2.32c3.383,1.953,2.954,5.4-.951,7.651l-2.116,1.222C234.952,253,228.988,253.25,225.606,251.3Z" transform="translate(-193.469 -208.405)" fill="#d1cef9"/>
          <path id="Trazado_103475" data-name="Trazado 103475" d="M196.955,267.838l-4.018-2.32c-3.383-1.952-2.954-5.4.951-7.651L196,256.647c3.906-2.255,9.869-2.5,13.252-.55l4.019,2.321c3.383,1.952,2.954,5.4-.951,7.651l-2.116,1.221C206.3,269.545,200.337,269.792,196.955,267.838Z" transform="translate(-190.655 -210.03)" fill="#d1cef9"/>
          <path id="Trazado_103476" data-name="Trazado 103476" d="M343.368,247.625l-36.506-21.077c-1.62-.935-1.415-2.583.455-3.662h0a7.076,7.076,0,0,1,6.342-.263L350.166,243.7c1.62.935,1.414,2.583-.455,3.662h0A7.076,7.076,0,0,1,343.368,247.625Z" transform="translate(-201.962 -206.809)" fill="#d1cef9"/>
          <path id="Trazado_103477" data-name="Trazado 103477" d="M314.717,264.166l-36.506-21.077c-1.62-.934-1.414-2.583.455-3.661h0a7.073,7.073,0,0,1,6.342-.263l36.507,21.077c1.619.934,1.414,2.583-.455,3.662h0A7.075,7.075,0,0,1,314.717,264.166Z" transform="translate(-199.148 -208.434)" fill="#d1cef9"/>
          <path id="Trazado_103478" data-name="Trazado 103478" d="M286.066,280.708,249.56,259.631c-1.619-.935-1.414-2.583.455-3.662h0a7.078,7.078,0,0,1,6.343-.263l36.506,21.077c1.619.935,1.414,2.583-.455,3.662h0A7.078,7.078,0,0,1,286.066,280.708Z" transform="translate(-196.334 -210.059)" fill="#d1cef9"/>
          <path id="Trazado_103479" data-name="Trazado 103479" d="M257.418,297.248l-36.506-21.077c-1.619-.935-1.414-2.583.455-3.662h0a7.078,7.078,0,0,1,6.343-.263l36.506,21.077c1.619.935,1.414,2.583-.455,3.662h0A7.078,7.078,0,0,1,257.418,297.248Z" transform="translate(-193.52 -211.684)" fill="#d1cef9"/>
          <g id="Grupo_57221" data-name="Grupo 57221" transform="translate(33.131 32.804)">
            <path id="Trazado_103480" data-name="Trazado 103480" d="M228.308,248.2a1.556,1.556,0,0,1-.912-1.272v-3.6c0-.994,1.4-1.8,3.115-1.8s3.116.805,3.116,1.8v1.8h11.847c1.721,0,3.115.8,3.115,1.8s-1.394,1.8-3.115,1.8H230.511A4.486,4.486,0,0,1,228.308,248.2Z" transform="translate(-227.395 -241.533)" fill="#918ce6"/>
          </g>
          <g id="Grupo_57222" data-name="Grupo 57222" transform="translate(59.306 17.694)">
            <path id="Trazado_103481" data-name="Trazado 103481" d="M257.333,231.442a1.558,1.558,0,0,1-.912-1.271v-3.6c0-.993,1.394-1.8,3.115-1.8s3.116.805,3.115,1.8v1.8H274.5c1.721,0,3.116.805,3.116,1.8s-1.394,1.8-3.115,1.8H259.537A4.487,4.487,0,0,1,257.333,231.442Z" transform="translate(-256.421 -224.776)" fill="#918ce6"/>
          </g>
          <g id="Grupo_57223" data-name="Grupo 57223" transform="translate(84.803 2.972)">
            <path id="Trazado_103482" data-name="Trazado 103482" d="M285.608,215.118a1.558,1.558,0,0,1-.913-1.272v-3.6c0-.994,1.394-1.8,3.116-1.8s3.115.805,3.115,1.8v1.8h11.847c1.721,0,3.115.805,3.116,1.8s-1.4,1.8-3.116,1.8H287.811A4.509,4.509,0,0,1,285.608,215.118Z" transform="translate(-284.695 -208.451)" fill="#918ce6"/>
          </g>
          <g id="Grupo_57224" data-name="Grupo 57224" transform="translate(7.635 47.526)">
            <path id="Trazado_103483" data-name="Trazado 103483" d="M200.034,264.524a1.556,1.556,0,0,1-.912-1.272v-3.6c0-.993,1.4-1.8,3.115-1.8s3.116.805,3.116,1.8v1.8H217.2c1.721,0,3.115.8,3.115,1.8s-1.394,1.8-3.115,1.8H202.237A4.486,4.486,0,0,1,200.034,264.524Z" transform="translate(-199.121 -257.858)" fill="#918ce6"/>
          </g>
        </g>
      </g>
      <g id="Grupo_57234" data-name="Grupo 57234" transform="translate(209.459 133.435)">
        <g id="Grupo_57230" data-name="Grupo 57230" transform="translate(0 0)">
          <path id="Trazado_103484" data-name="Trazado 103484" d="M291.895,157.019c-.531-1.888-.926-4.17-2.621-5.148-2.874-1.659-7.441.261-11-.543-3.337-.753-6.492-4.51-10.024-4.51s-6.687,3.757-10.024,4.51c-3.557.8-8.125-1.116-11,.543-1.7.978-2.09,3.259-2.621,5.147h-6.588V165h0c0,2.353,3.918,3.64,5.655,5.819,1.372,1.723,1.1,5.887,3.555,7.306,2.874,1.66,7.441-.261,11,.543,3.337.753,6.492,4.51,10.024,4.51s6.688-3.757,10.024-4.51c3.557-.8,8.125,1.117,11-.542,2.46-1.42,2.182-5.584,3.556-7.307,1.736-2.18,5.654-3.465,5.654-5.819v-7.978Z" transform="translate(-229.046 -138.84)" fill="#423ead"/>
          <g id="Grupo_57229" data-name="Grupo 57229">
            <path id="Trazado_103485" data-name="Trazado 103485" d="M242.765,180.674q-.776-3.721-1.554-7.443l-13.142-1.042L254,157.216l14.7,8.484Z" transform="translate(-228.069 -139.861)" fill="#fdcc6b"/>
            <g id="Grupo_57228" data-name="Grupo 57228" transform="translate(8.971)">
              <g id="Grupo_57227" data-name="Grupo 57227">
                <path id="Trazado_103486" data-name="Trazado 103486" d="M289.274,169.275c-2.874,1.659-7.441-.261-11,.543-3.337.753-6.492,4.51-10.024,4.51s-6.688-3.757-10.024-4.51c-3.558-.8-8.126,1.116-11-.543-2.459-1.42-2.182-5.583-3.555-7.306-1.737-2.18-5.655-3.466-5.655-5.82s3.918-3.64,5.655-5.819c1.372-1.723,1.1-5.887,3.555-7.306,2.874-1.66,7.441.261,11-.543,3.337-.753,6.492-4.51,10.024-4.51s6.688,3.757,10.024,4.51c3.558.8,8.126-1.117,11,.543,2.46,1.419,2.182,5.583,3.556,7.306,1.736,2.18,5.654,3.466,5.654,5.82s-3.918,3.64-5.654,5.819C291.456,163.692,291.734,167.856,289.274,169.275Z" transform="translate(-238.017 -137.971)" fill="#6c65f3"/>
              </g>
              <ellipse id="Elipse_4062" data-name="Elipse 4062" cx="20.45" cy="11.807" rx="20.45" ry="11.807" transform="translate(9.783 6.371)" fill="#423ead"/>
            </g>
          </g>
          <path id="Trazado_103487" data-name="Trazado 103487" d="M228.069,173.82V181.8l13.142,1.042v-7.978Z" transform="translate(-228.069 -141.493)" fill="#ff865d"/>
          <path id="Trazado_103488" data-name="Trazado 103488" d="M242.643,174.975v7.978L244.2,190.4v-7.978Z" transform="translate(-229.501 -141.606)" fill="#ff9672"/>
        </g>
        <g id="Grupo_57233" data-name="Grupo 57233" transform="translate(27.196 10.626)">
          <g id="Grupo_57231" data-name="Grupo 57231" transform="translate(4.971)">
            <path id="Trazado_103489" data-name="Trazado 103489" d="M269.888,149.755l1.739,1-6.146,3.549-1.74-1Z" transform="translate(-263.74 -149.755)" fill="#fff"/>
            <path id="Trazado_103490" data-name="Trazado 103490" d="M267.827,155.636a2.4,2.4,0,0,1-.648-.943l1.851-.411a2.383,2.383,0,0,0,.519.806,3.742,3.742,0,0,0,.9.715q1,.578,1.5.289a.245.245,0,0,0,.105-.391,4.362,4.362,0,0,0-.651-.684,7.6,7.6,0,0,1-.839-.855,1.035,1.035,0,0,1-.249-.777c.029-.274.256-.535.684-.782a3.355,3.355,0,0,1,1.321-.408,4.892,4.892,0,0,1,1.633.116,6.359,6.359,0,0,1,1.76.712,5.824,5.824,0,0,1,1.059.768,2.641,2.641,0,0,1,.637.829l-1.826.436a3.065,3.065,0,0,0-1.228-1.257,2.511,2.511,0,0,0-.91-.348,1.01,1.01,0,0,0-.637.094.231.231,0,0,0-.088.375,4.223,4.223,0,0,0,.65.669,7.207,7.207,0,0,1,.842.858,1.068,1.068,0,0,1,.256.776q-.037.41-.676.78a3.277,3.277,0,0,1-1.308.4,5.018,5.018,0,0,1-1.638-.12,6.325,6.325,0,0,1-1.76-.706A6.26,6.26,0,0,1,267.827,155.636Z" transform="translate(-264.078 -149.992)" fill="#fff"/>
            <path id="Trazado_103491" data-name="Trazado 103491" d="M275.136,159.548a1.518,1.518,0,0,1-.078-1.363,2.67,2.67,0,0,1,1.2-1.2,5.717,5.717,0,0,1,2.086-.691,7.448,7.448,0,0,1,2.362.045,6.578,6.578,0,0,1,2.165.774,3.355,3.355,0,0,1,1.34,1.25,1.523,1.523,0,0,1,.078,1.363,2.666,2.666,0,0,1-1.2,1.2,5.735,5.735,0,0,1-2.087.693,7.494,7.494,0,0,1-2.361-.046,6.571,6.571,0,0,1-2.164-.773A3.348,3.348,0,0,1,275.136,159.548Zm3.843.778a3.822,3.822,0,0,0,1.216-.012,3.355,3.355,0,0,0,1.137-.4,1.68,1.68,0,0,0,.7-.656.777.777,0,0,0,.023-.7,1.445,1.445,0,0,0-.623-.613,3.011,3.011,0,0,0-1.064-.36,3.821,3.821,0,0,0-1.216.012,3.359,3.359,0,0,0-1.137.4,1.675,1.675,0,0,0-.7.657.769.769,0,0,0-.023.7,1.433,1.433,0,0,0,.624.613A2.994,2.994,0,0,0,278.979,160.326Z" transform="translate(-264.839 -150.39)" fill="#fff"/>
          </g>
          <g id="Grupo_57232" data-name="Grupo 57232" transform="translate(0 4.787)">
            <path id="Trazado_103492" data-name="Trazado 103492" d="M264.655,156.637q-.011.606-1.007,1.18a4.559,4.559,0,0,1-3.07.553,4.361,4.361,0,0,1-1.433-.519,3.081,3.081,0,0,1-.593-.435,1.3,1.3,0,0,1-.324-.445l1.274-.241a1.1,1.1,0,0,0,.554.567,2.043,2.043,0,0,0,.971.275,2.252,2.252,0,0,0,1.043-.226,2.7,2.7,0,0,1-1.24-.365,1.459,1.459,0,0,1-.556-.51.637.637,0,0,1-.056-.569,1.05,1.05,0,0,1,.494-.509,2.478,2.478,0,0,1,.965-.306,3.42,3.42,0,0,1,1.09.051,3.341,3.341,0,0,1,1,.375Q264.666,156.032,264.655,156.637Zm-2.135.174a1.024,1.024,0,0,0,.546-.129c.155-.089.227-.193.22-.309s-.1-.227-.28-.331a1.142,1.142,0,0,0-.551-.152,1,1,0,0,0-.544.132c-.16.092-.234.2-.225.312s.1.223.271.321A1.178,1.178,0,0,0,262.519,156.811Z" transform="translate(-258.227 -155.064)" fill="#fff"/>
            <path id="Trazado_103493" data-name="Trazado 103493" d="M263.419,160a.859.859,0,0,1,.095-.808,2.559,2.559,0,0,1,.93-.809,4.653,4.653,0,0,1,1.4-.537,4.169,4.169,0,0,1,1.4-.055,3.308,3.308,0,0,1,1.208.4,1.536,1.536,0,0,1,.692.7.854.854,0,0,1-.095.808,2.559,2.559,0,0,1-.93.809,4.618,4.618,0,0,1-1.4.536,4.142,4.142,0,0,1-1.4.056,3.272,3.272,0,0,1-1.2-.4A1.538,1.538,0,0,1,263.419,160Zm2.425.248a3.169,3.169,0,0,0,1.09-.427,1.74,1.74,0,0,0,.739-.63q.114-.268-.186-.44a1.179,1.179,0,0,0-.767-.11,3.163,3.163,0,0,0-1.09.427,1.73,1.73,0,0,0-.738.629q-.114.269.19.444A1.173,1.173,0,0,0,265.844,160.245Z" transform="translate(-258.731 -155.328)" fill="#fff"/>
            <path id="Trazado_103494" data-name="Trazado 103494" d="M267.945,162.609a.856.856,0,0,1,.095-.809,2.549,2.549,0,0,1,.93-.807,4.623,4.623,0,0,1,1.4-.537,4.118,4.118,0,0,1,1.4-.055,3.3,3.3,0,0,1,1.208.4,1.526,1.526,0,0,1,.693.7.854.854,0,0,1-.1.808,2.542,2.542,0,0,1-.93.808,4.638,4.638,0,0,1-1.4.537,4.158,4.158,0,0,1-1.4.055,3.289,3.289,0,0,1-1.2-.4A1.533,1.533,0,0,1,267.945,162.609Zm2.425.247a3.158,3.158,0,0,0,1.09-.427,1.729,1.729,0,0,0,.738-.629c.076-.179.014-.325-.185-.44a1.183,1.183,0,0,0-.768-.11,3.169,3.169,0,0,0-1.09.427,1.723,1.723,0,0,0-.738.63q-.114.266.19.443A1.171,1.171,0,0,0,270.37,162.857Z" transform="translate(-259.175 -155.584)" fill="#fff"/>
            <path id="Trazado_103495" data-name="Trazado 103495" d="M277.272,163.33l-4.171,2.408-1.18-.682,3.258-1.881-.773-.447.911-.526Z" transform="translate(-259.572 -155.765)" fill="#fff"/>
          </g>
        </g>
        <path id="Trazado_103496" data-name="Trazado 103496" d="M259.548,173.509v7.979l-15.182,8.765v-7.978Z" transform="translate(-229.67 -141.462)" fill="#ff865d"/>
      </g>
      <g id="Grupo_57235" data-name="Grupo 57235" transform="translate(373.048 226.59)">
        <path id="Trazado_103497" data-name="Trazado 103497" d="M429.742,247.428v40.305a.372.372,0,0,1,0,.078v.049a1.687,1.687,0,0,1-.961,1.232l-7.041,4.061a4.624,4.624,0,0,1-2.127.559,3.579,3.579,0,0,1-1.844-.4l-7.605-4.392a1.151,1.151,0,0,1-.679-1.063h-.005v-40.4l4.1-.005,3.911-2.253a4.43,4.43,0,0,1,3.971-.169l4.157,2.4Z" transform="translate(-409.478 -241.604)" fill="#ff865d"/>
        <path id="Trazado_103498" data-name="Trazado 103498" d="M430.846,247.759V288.04a.372.372,0,0,1,0,.078v.049a1.687,1.687,0,0,1-.961,1.232l-7.041,4.061a4.624,4.624,0,0,1-2.127.559V247.759Z" transform="translate(-410.582 -241.91)" fill="#fdcc6b"/>
        <path id="Trazado_103499" data-name="Trazado 103499" d="M417.77,252.579l-7.607-4.392c-1.014-.585-.886-1.617.285-2.292l7.036-4.063a4.432,4.432,0,0,1,3.971-.164l7.607,4.392c1.014.585.886,1.617-.285,2.292l-7.037,4.063A4.43,4.43,0,0,1,417.77,252.579Z" transform="translate(-409.478 -241.273)" fill="#fad792"/>
        <path id="Trazado_103500" data-name="Trazado 103500" d="M420.063,250.128a1.266,1.266,0,0,1-.212-.016l-4.574-2.64,4.374-2.525a1.524,1.524,0,0,1,.65-.132,1.275,1.275,0,0,1,.212.016l4.573,2.64L420.713,250A1.523,1.523,0,0,1,420.063,250.128Z" transform="translate(-410.048 -241.621)" fill="#ff865d"/>
      </g>
      <g id="Grupo_57236" data-name="Grupo 57236" transform="translate(346.494 242.376)">
        <path id="Trazado_103501" data-name="Trazado 103501" d="M400.295,264.936v24.517a.161.161,0,0,1,0,.078v.049a1.682,1.682,0,0,1-.961,1.231l-7.041,4.062a4.6,4.6,0,0,1-2.126.559,3.577,3.577,0,0,1-1.844-.4l-7.606-4.392a1.151,1.151,0,0,1-.679-1.063h-.006V264.966l4.1-.005,3.911-2.259a4.444,4.444,0,0,1,3.97-.162l3.358,1.941.805.463Z" transform="translate(-380.031 -259.11)" fill="#ff865d"/>
        <path id="Trazado_103502" data-name="Trazado 103502" d="M401.4,265.19v24.517a.161.161,0,0,1,0,.078v.049a1.682,1.682,0,0,1-.961,1.231l-7.041,4.062a4.6,4.6,0,0,1-2.126.559V265.215l5.2-.481.805.463Z" transform="translate(-381.135 -259.364)" fill="#fdcc6b"/>
        <path id="Trazado_103503" data-name="Trazado 103503" d="M388.325,270.086l-7.607-4.393c-1.014-.585-.886-1.617.285-2.292l7.037-4.063a4.432,4.432,0,0,1,3.971-.164l7.607,4.392c1.014.585.885,1.617-.285,2.293l-7.037,4.062A4.427,4.427,0,0,1,388.325,270.086Z" transform="translate(-380.031 -258.779)" fill="#fad792"/>
        <path id="Trazado_103504" data-name="Trazado 103504" d="M390.617,267.635a1.287,1.287,0,0,1-.212-.016l-4.573-2.641,4.374-2.525a1.525,1.525,0,0,1,.649-.132,1.281,1.281,0,0,1,.213.016l4.573,2.641-4.374,2.525A1.543,1.543,0,0,1,390.617,267.635Z" transform="translate(-380.601 -259.127)" fill="#ff865d"/>
      </g>
      <g id="Grupo_57239" data-name="Grupo 57239" transform="translate(120.467 170.252)">
        <path id="Trazado_103505" data-name="Trazado 103505" d="M208.868,183.424l8.015-4.626,7.867,4.539,3.931,10.133-3.931,5.583-8.015,4.626,3.932-5.587-3.932-10.129Z" transform="translate(-137.191 -178.798)" fill="#fad792"/>
        <g id="Grupo_57237" data-name="Grupo 57237" transform="translate(79.544 4.539)">
          <path id="Trazado_103506" data-name="Trazado 103506" d="M229.538,193.965l-8.014,4.622-3.932-10.129,8.015-4.626Z" transform="translate(-217.592 -183.832)" fill="#fdcc6b"/>
        </g>
        <path id="Trazado_103507" data-name="Trazado 103507" d="M225.607,200.652l-8.015,4.626,3.932-5.587,8.014-4.622Z" transform="translate(-138.048 -180.397)" fill="#ff865d"/>
        <path id="Trazado_103508" data-name="Trazado 103508" d="M147.1,216.088l55.7-32.16,7.867,4.539L214.6,198.6l-3.932,5.587-55.705,32.161,3.935-5.585-3.935-10.129Z" transform="translate(-131.123 -179.302)" fill="#918ce6"/>
        <path id="Trazado_103509" data-name="Trazado 103509" d="M159.754,231.255l55.7-32.164-3.932-10.129-55.705,32.164Z" transform="translate(-131.98 -179.797)" fill="#6c65f3"/>
        <path id="Trazado_103510" data-name="Trazado 103510" d="M155.819,237.943l55.705-32.161,3.932-5.587-55.7,32.164Z" transform="translate(-131.98 -180.9)" fill="#423ead"/>
        <path id="Trazado_103511" data-name="Trazado 103511" d="M135.561,234.092l10.4-14.5,7.864,4.544,3.935,10.129-3.935,5.585-15.794.622,1.24-1.755-1.24-3.192Z" transform="translate(-129.99 -182.806)" fill="#fff"/>
        <g id="Grupo_57238" data-name="Grupo 57238" transform="translate(8.045 41.329)">
          <path id="Trazado_103512" data-name="Trazado 103512" d="M139.545,239.211l18.489-4.452L154.1,224.63,138.3,236.019Z" transform="translate(-138.305 -224.63)" fill="#fff"/>
        </g>
        <path id="Trazado_103513" data-name="Trazado 103513" d="M138.3,242.069l15.794-.622,3.935-5.585-18.489,4.452Z" transform="translate(-130.26 -184.404)" fill="#b1acfa"/>
        <path id="Trazado_103514" data-name="Trazado 103514" d="M129.8,241.243l-.414.59.417,1.071.833.478,6.8-1.331,1.24-1.755-1.24-3.192-2.474-1.433Z" transform="translate(-129.383 -184.385)" fill="#423ead"/>
      </g>
      <g id="Grupo_57249" data-name="Grupo 57249" transform="translate(75.56 201.728)">
        <g id="Grupo_57241" data-name="Grupo 57241" transform="translate(18.222 21.606)">
          <path id="Trazado_103515" data-name="Trazado 103515" d="M117.252,255.544l9.685-11.942-19.087-5.939-8.059,11.382Z" transform="translate(-99.791 -237.663)" fill="#fff"/>
          <g id="Grupo_57240" data-name="Grupo 57240" transform="translate(17.73 10.145)">
            <path id="Trazado_103516" data-name="Trazado 103516" d="M119.9,256.291l.764-1.376,1.468-2.644c.042-.021.084-.041.124-.063.078-.04.157-.082.233-.124a14.746,14.746,0,0,0,2.245-1.645l1.066-1.029c.175.1.344.207.545.3.591.464.263.929.146,1.36a.759.759,0,0,0,.134.451,1.272,1.272,0,0,1,.146.519,1.591,1.591,0,0,1-.193.6.972.972,0,0,0-.093.3.433.433,0,0,0,.05.2.762.762,0,0,1,.055.408.563.563,0,0,1-.048.151c-.091.208-.279.5-.263.642,0,.049.007.095.009.14a1.23,1.23,0,0,1-.361.971,30.226,30.226,0,0,1-4.369,3.8l-1.417-1.666-.587-.69Z" transform="translate(-119.463 -248.962)" fill="#fdad75"/>
            <path id="Trazado_103517" data-name="Trazado 103517" d="M120.783,257.862l-.482-.649-.417-.564c0-.133.006-.271.006-.407a17.306,17.306,0,0,0-.3-3.254,2.3,2.3,0,0,1,.012-.982,3.7,3.7,0,0,0-.1-2.144.7.7,0,0,1,.483-.937.564.564,0,0,1,.126-.012c.422.01.68.548.849,1.211.06.234.108.48.149.722a2.042,2.042,0,0,0,1.375,1.189,4.016,4.016,0,0,0,.514.12c.194.035.393.058.588.077l-1.812,3.643Z" transform="translate(-119.452 -248.913)" fill="#fdad75"/>
          </g>
          <path id="Trazado_103518" data-name="Trazado 103518" d="M126.619,255.035l1.606-3.767.4-3.045c0-.565-.37-.651-.857-.6a3.414,3.414,0,0,0-1.475,1.606l-1.69,2.439.982,3.475Z" transform="translate(-102.229 -238.64)" fill="#fdad75"/>
        </g>
        <g id="Grupo_57248" data-name="Grupo 57248" transform="translate(0 0)">
          <g id="Grupo_57242" data-name="Grupo 57242" transform="translate(0.006 50.066)">
            <path id="Trazado_103519" data-name="Trazado 103519" d="M109.814,354.182a47.954,47.954,0,0,1-8.866,4.385,7.082,7.082,0,0,1-2.979.363,1.964,1.964,0,0,1-1.829-1.587,14.9,14.9,0,0,1,.5-5.911V346.95l3.1-.363,3.828-.461-.11,2.907-.036.812,2.738.181,1.4-.145a2.7,2.7,0,0,1,2.41.945A2.461,2.461,0,0,1,109.814,354.182Z" transform="translate(-81.204 -276.778)" fill="#423ead"/>
            <path id="Trazado_103520" data-name="Trazado 103520" d="M93.747,345.075a47.939,47.939,0,0,1-8.865,4.384,7.073,7.073,0,0,1-2.98.363,1.965,1.965,0,0,1-1.829-1.587,14.879,14.879,0,0,1,.5-5.91v-4.482l3.1-.363,3.828-.46-.109,2.906-.036.812,2.737.181,1.4-.144a2.705,2.705,0,0,1,2.41.944A2.463,2.463,0,0,1,93.747,345.075Z" transform="translate(-79.626 -275.883)" fill="#423ead"/>
            <path id="Trazado_103521" data-name="Trazado 103521" d="M80.954,273.558l1.1,27.53c-1.294,9.856-3.464,18.9-1.938,34.232.372,2.814,8.48,2.087,9.349-1.159.7-8.792,3.067-20,3.284-32.674-.378-5.842.6-17.621-.317-21.884A17.061,17.061,0,0,1,80.954,273.558Z" transform="translate(-79.591 -269.649)" fill="#6c65f3"/>
            <path id="Trazado_103522" data-name="Trazado 103522" d="M88.877,290.333l4.786,21.03c-1.294,9.856-.677,16.544.849,31.871.372,2.814,9.365,2.174,9.365-1.335.088-8.431,1.011-20.016,1.228-32.687-.378-5.841-1.883-27.921-2.8-32.184-.856-7.286-21.411-11.173-21.577-3.982C80.306,281.88,82.01,286.533,88.877,290.333Z" transform="translate(-79.696 -269.223)" fill="#6c65f3"/>
          </g>
          <g id="Grupo_57247" data-name="Grupo 57247">
            <g id="Grupo_57245" data-name="Grupo 57245" transform="translate(0 16.048)">
              <g id="Grupo_57244" data-name="Grupo 57244">
                <g id="Grupo_57243" data-name="Grupo 57243">
                  <path id="Trazado_103523" data-name="Trazado 103523" d="M79.584,271.886c.1-3.5.831-27.227,3.7-35.557,1.268-3.676,2.973-4.416,3.553-4.615,2.3-.791,4.737.817,5.5,1.361,4.015,1.914,7.225,2.69,9.9,4.107.328.179.648.356.961.555a49.112,49.112,0,0,1,.947,8.208c.064,1.1.128,2.192.192,3.2.036.5.071,1,.1,1.466.008.145.017.254.02.288v.012c.009.11.092,10.871.215,27.588a30.04,30.04,0,0,1-25.09-6.615Z" transform="translate(-79.584 -231.499)" fill="#d1cef9"/>
                </g>
              </g>
              <path id="Trazado_103524" data-name="Trazado 103524" d="M88.421,232.052c-2.158,1.947-2.178,3.9,1.741,5.885,3.563.992,6.466.719,9.5-2.134l-2.614-1.294Z" transform="translate(-80.309 -231.553)" fill="#d1cef9"/>
            </g>
            <g id="Grupo_57246" data-name="Grupo 57246" transform="translate(3.766)">
              <path id="Trazado_103525" data-name="Trazado 103525" d="M88.347,227.93v3.383c.094,1.251,1.725,2.626,3.873,2.825a6.835,6.835,0,0,0,4.755-1.358l.019-1.558.609-.24c1.281-.625,1.611-1.226,1.8-4.571a42.3,42.3,0,0,1,.29-4.33,7.6,7.6,0,0,0,0-1.84,6.138,6.138,0,0,0-6.72-5.743c-4.321.428-6.751,2.931-6.751,6.931C86.259,224.043,86.793,226.284,88.347,227.93Z" transform="translate(-84.002 -213.778)" fill="#fdad75"/>
              <path id="Trazado_103526" data-name="Trazado 103526" d="M88.106,229.356a6.8,6.8,0,0,0,5.677,1.156c1.6-.653,1.668-3.755,1.781-6.782l.89-.471a2.956,2.956,0,0,1,.01-2.567,2.868,2.868,0,0,1,2.853-1.442,6.063,6.063,0,0,0-1.722-3.77c-3.073-2.942-10.5-2.306-13,2.477C82.727,221.528,84.035,226.6,88.106,229.356Z" transform="translate(-83.76 -213.703)" fill="#423ead"/>
              <path id="Trazado_103527" data-name="Trazado 103527" d="M96.747,224.156c-.388-1.535-2.35-.583-1.63,2.349.3,1.16.847,2.022,1.656.938C96.773,227.243,96.778,224.258,96.747,224.156Z" transform="translate(-84.86 -214.659)" fill="#fdad75"/>
            </g>
          </g>
          <path id="Trazado_103528" data-name="Trazado 103528" d="M119.853,260.894a11.242,11.242,0,0,1-6.575,3.075,11.763,11.763,0,0,1-9.173-3.447,79.9,79.9,0,0,1-4.95-10.205c-.91-2.281-1.6-4.328-1.2-6.814a6.355,6.355,0,0,1,1.909-4.03,6.29,6.29,0,0,1,4.911-1.306q2.573,7.157,5.145,14.314l7.5,3.319a7.82,7.82,0,0,1,1.158,1.381A8.088,8.088,0,0,1,119.853,260.894Z" transform="translate(-81.377 -216.1)" fill="#d1cef9"/>
        </g>
      </g>
      <g id="Grupo_57253" data-name="Grupo 57253" transform="translate(285.109 91.794)">
        <g id="Grupo_57250" data-name="Grupo 57250" transform="translate(0)">
          <path id="Trazado_103529" data-name="Trazado 103529" d="M425.7,148.244,330.082,92.721c-2.272-1.311-4.319-1.18-5.753.069l-.006-.01-9.445,5.182,7.368,13.012v23.435c0,5.747,3.527,12.485,7.836,14.973l82.9,48.179,7.619,13.454,9.738-5.473-.006-.011c1.938-.787,3.207-3.111,3.207-6.55V163.218C433.537,157.471,430.011,150.733,425.7,148.244Z" transform="translate(-312.246 -91.794)" fill="#423ead"/>
          <path id="Trazado_103530" data-name="Trazado 103530" d="M423.248,169.418v35.76c0,5.753-3.524,8.419-7.835,5.931L393.4,198.322v8.248l-6.936-12.277L319.8,155.586c-4.311-2.5-7.836-9.23-7.836-14.975V104.843c0-5.745,3.525-8.411,7.836-5.924l95.617,55.524C419.724,156.93,423.248,163.673,423.248,169.418Z" transform="translate(-311.959 -92.403)" fill="#6c65f3"/>
        </g>
        <g id="Grupo_57252" data-name="Grupo 57252" transform="translate(10.571 34.247)">
          <g id="Grupo_57251" data-name="Grupo 57251">
            <path id="Trazado_103531" data-name="Trazado 103531" d="M326.019,138.921a10.479,10.479,0,0,1-1.714-2.856,8.2,8.2,0,0,1-.624-3.068,3.86,3.86,0,0,1,.624-2.348,2.126,2.126,0,0,1,1.714-.876,4.7,4.7,0,0,1,2.465.753,9.117,9.117,0,0,1,2.158,1.737,9.934,9.934,0,0,1,1.6,2.334l-1.573.734a5.491,5.491,0,0,0-2.058-2.37,2.278,2.278,0,0,0-1.267-.372,1.068,1.068,0,0,0-.861.519,2.467,2.467,0,0,0-.3,1.328,4.869,4.869,0,0,0,.3,1.683,5.257,5.257,0,0,0,.861,1.512,4.566,4.566,0,0,0,1.267,1.09,1.688,1.688,0,0,0,2.058.008l1.573,2.549a2.117,2.117,0,0,1-1.6.49,5.121,5.121,0,0,1-2.158-.756A9.26,9.26,0,0,1,326.019,138.921Z" transform="translate(-323.681 -129.772)" fill="#fff"/>
            <path id="Trazado_103532" data-name="Trazado 103532" d="M344.167,147.466v2.2l-7.011-4.047V135.538L344,139.492v2.2l-4.4-2.543v1.7l3.88,2.24v2.132l-3.88-2.24v1.844Z" transform="translate(-325.005 -130.338)" fill="#fff"/>
            <path id="Trazado_103533" data-name="Trazado 103533" d="M353.035,152.11l-1.346-.778v2.68l-2.47-1.427V142.5l3.992,2.306a8.544,8.544,0,0,1,2.059,1.641,7.307,7.307,0,0,1,1.346,2.075,5.724,5.724,0,0,1,.474,2.254,2.624,2.624,0,0,1-.443,1.653,1.486,1.486,0,0,1-1.266.543l1.884,4.257-2.645-1.527Zm1.173-4.091a3.23,3.23,0,0,0-1.148-1.051l-1.372-.792v2.953l1.372.792q.762.44,1.148.28t.387-.864A2.426,2.426,0,0,0,354.208,148.019Z" transform="translate(-326.19 -131.022)" fill="#fff"/>
            <path id="Trazado_103534" data-name="Trazado 103534" d="M363.854,153.214l-2.682-1.549V149.4l7.823,4.517v2.262l-2.67-1.542v7.822l-2.471-1.426Z" transform="translate(-327.364 -131.7)" fill="#fff"/>
            <path id="Trazado_103535" data-name="Trazado 103535" d="M373.637,156.6l2.47,1.427v10.083l-2.47-1.426Z" transform="translate(-328.588 -132.407)" fill="#fff"/>
            <path id="Trazado_103536" data-name="Trazado 103536" d="M383.564,164.536v2.218l3.854,2.225v2.2l-3.854-2.226v3.456l-2.47-1.426V160.9l6.847,3.954v2.2Z" transform="translate(-329.321 -132.83)" fill="#fff"/>
            <path id="Trazado_103537" data-name="Trazado 103537" d="M392.741,167.63l2.47,1.427V179.14l-2.47-1.427Z" transform="translate(-330.465 -133.491)" fill="#fff"/>
            <path id="Trazado_103538" data-name="Trazado 103538" d="M407.21,183.863v2.2l-7.012-4.048V171.936l6.849,3.953v2.2l-4.4-2.542v1.7l3.879,2.239v2.133l-3.879-2.24v1.843Z" transform="translate(-331.197 -133.914)" fill="#fff"/>
            <path id="Trazado_103539" data-name="Trazado 103539" d="M412.261,178.9l4.129,2.384a10.111,10.111,0,0,1,2.545,2.089,9.746,9.746,0,0,1,1.721,2.752,7.888,7.888,0,0,1,.611,3.017,3.712,3.712,0,0,1-.611,2.312,2,2,0,0,1-1.721.764,5.464,5.464,0,0,1-2.545-.85l-4.129-2.383Zm4.029,10.135a1.923,1.923,0,0,0,1.8.306q.679-.342.679-1.639a4.619,4.619,0,0,0-.679-2.424,4.98,4.98,0,0,0-1.8-1.775l-1.559-.9v5.531Z" transform="translate(-332.382 -134.598)" fill="#fff"/>
          </g>
        </g>
        <path id="Trazado_103540" data-name="Trazado 103540" d="M402.266,209.249v8.25l7.126-4.113Z" transform="translate(-320.83 -103.332)" fill="#423ead"/>
      </g>
    </g>
  </g>
</svg>
